<?xml version="1.0"?>
<svg width="512" height="512" xmlns="http://www.w3.org/2000/svg" xmlns:svg="http://www.w3.org/2000/svg" xmlns:xlink="http://www.w3.org/1999/xlink">
 <!-- Created with SVG-edit - https://github.com/SVG-Edit/svgedit-->
 <defs>
  <symbol id="svg_4" viewBox="0 0 100 100" xmlns="http://www.w3.org/2000/svg">
   <path d="m53.707,52.526l-6.74,6.744l-6.236,-6.236l6.74,-6.741a3.569,3.569 0 0 0 0,-5.055a3.571,3.571 0 0 0 -5.054,0l-6.742,6.741l-4.643,-4.644c-0.097,0.095 -8.829,8.826 -8.927,8.925c-6.594,6.597 -7.038,17.001 -1.347,24.116l-15.167,15.165a2.035,2.035 0 0 0 0,2.866a2.032,2.032 0 0 0 2.87,0l15.164,-15.165c7.118,5.688 17.521,5.242 24.117,-1.349c0.098,-0.099 8.823,-8.834 8.917,-8.932l-4.639,-4.636l6.744,-6.744a3.58,3.58 0 0 0 0,-5.056a3.578,3.578 0 0 0 -5.057,0.001zm40.697,-46.933a2.023,2.023 0 0 0 -2.861,0l-15.168,15.167c-7.113,-5.691 -17.52,-5.246 -24.112,1.348c-0.098,0.098 -8.825,8.832 -8.921,8.931l4.638,4.637l5.728,-5.729a3.581,3.581 0 0 1 5.058,0a3.578,3.578 0 0 1 0,5.055l-5.731,5.73l6.235,6.233l5.73,-5.729a3.577,3.577 0 0 1 5.054,0a3.58,3.58 0 0 1 0,5.059l-5.729,5.729l4.645,4.642c0.098,-0.095 8.825,-8.826 8.923,-8.925c6.598,-6.593 7.042,-17.001 1.348,-24.116l15.163,-15.165a2.025,2.025 0 0 0 0,-2.867z" id="svg_1"/>
  </symbol>
  <symbol fill-rule="evenodd" id="svg_6" viewBox="0 0 762 762" xmlns="http://www.w3.org/2000/svg" xmlns:xlink="http://www.w3.org/1999/xlink">
   <defs>
    <style type="text/css">.fil0 {fill:black}</style>
   </defs>
   <g id="svg_2">
    <path d="m397,279l343,352c66,68 -29,186 -112,102l-26,26l-29,-30l26,-27l-19,-19l-26,26l-30,-30l26,-27l-19,-19l-26,26l-30,-30l26,-27l-19,-20l-26,27l-29,-30l25,-27l-152,-157c-205,111 -404,-164 -239,-333c152,-157 407,9 336,217l0,0z" id="svg_3"/>
   </g>
  </symbol>
 </defs>
 <title>logo</title>
 <g class="layer">
  <title>Layer 1</title>
  <g id="svg_5">
   <ellipse cx="256" cy="256" fill="#60b0f4" id="circle" rx="248" ry="248" stroke="#000000" stroke-width="6" transform="matrix(1, 0, 0, 1, 0, 0)">rcle</ellipse>
   <use id="plug" opacity="0.65" transform="matrix(0.497102, 0.497102, -0.497102, 0.497102, -1357.15, 207.671)" x="1415.166927" xlink:href="#svg_4" y="-1829.946014"/>
   <use fill="#ffaa00" id="key" transform="matrix(1, 0, 0, 1, 0, 0) rotate(270, 256, 266.463) matrix(0.707253, 0, 0, 0.707253, -416.963, -416.983)" x="695.543173" xlink:href="#svg_6" y="710.34718"/>
  </g>
 </g>
</svg>