<svg xmlns="http://www.w3.org/2000/svg" viewBox="0 0 100 100"><path d="M53.707 52.526l-6.74 6.744-6.236-6.236 6.74-6.741a3.569 3.569 0 0 0 0-5.055 3.571 3.571 0 0 0-5.054 0l-6.742 6.741-4.643-4.644c-.097.095-8.829 8.826-8.927 8.925-6.594 6.597-7.038 17.001-1.347 24.116L5.591 91.541a2.035 2.035 0 0 0 0 2.866 2.032 2.032 0 0 0 2.87 0l15.164-15.165c7.118 5.688 17.521 5.242 24.117-1.349.098-.099 8.823-8.834 8.917-8.932l-4.639-4.636 6.744-6.744a3.58 3.58 0 0 0 0-5.056 3.578 3.578 0 0 0-5.057.001zM94.404 5.593a2.023 2.023 0 0 0-2.861 0L76.375 20.76c-7.113-5.691-17.52-5.246-24.112 1.348-.098.098-8.825 8.832-8.921 8.931l4.638 4.637 5.728-5.729a3.581 3.581 0 0 1 5.058 0 3.578 3.578 0 0 1 0 5.055l-5.731 5.73 6.235 6.233L65 41.236a3.577 3.577 0 0 1 5.054 0 3.58 3.58 0 0 1 0 5.059l-5.729 5.729 4.645 4.642c.098-.095 8.825-8.826 8.923-8.925 6.598-6.593 7.042-17.001 1.348-24.116L94.404 8.46a2.025 2.025 0 0 0 0-2.867z"/></svg>